<svg xmlns="http://www.w3.org/2000/svg" width="52" height="51" viewBox="0 0 52 51"><defs><clipPath id="dekoa"><path fill="#fff" d="M26.5 10C35.06 10 42 16.94 42 25.5 42 34.06 35.06 41 26.5 41 17.94 41 11 34.06 11 25.5 11 16.94 17.94 10 26.5 10z"/></clipPath><clipPath id="dekob"><path fill="#fff" d="M26.5 0C40.583 0 52 11.417 52 25.5S40.583 51 26.5 51 1 39.583 1 25.5 12.417 0 26.5 0z"/></clipPath></defs><g><g><path fill="#262626" d="M26.5 20a5.5 5.5 0 1 1 0 11 5.5 5.5 0 0 1 0-11z"/></g><g><path fill="none" stroke="#262626" stroke-miterlimit="20" stroke-width="2" d="M26.5 10C35.06 10 42 16.94 42 25.5 42 34.06 35.06 41 26.5 41 17.94 41 11 34.06 11 25.5 11 16.94 17.94 10 26.5 10z" clip-path="url(&quot;#dekoa&quot;)"/></g><g><path fill="none" stroke="#262626" stroke-miterlimit="20" stroke-width="2" d="M26.5 0C40.583 0 52 11.417 52 25.5S40.583 51 26.5 51 1 39.583 1 25.5 12.417 0 26.5 0z" clip-path="url(&quot;#dekob&quot;)"/></g></g></svg>