<svg xmlns="http://www.w3.org/2000/svg" width="18" height="52" viewBox="0 0 18 52"><defs><clipPath id="akuoa"><path fill="#fff" d="M2 45l7 7 7-7"/></clipPath><clipPath id="akuob"><path fill="#fff" d="M9 43a1 1 0 1 1 0 2 1 1 0 0 1 0-2z"/></clipPath><clipPath id="akuoc"><path fill="#fff" d="M9 37a1 1 0 1 1 0 2 1 1 0 0 1 0-2z"/></clipPath><clipPath id="akuod"><path fill="#fff" d="M9 31a1 1 0 1 1 0 2 1 1 0 0 1 0-2z"/></clipPath></defs><g><g><g><path fill="#fff" d="M11.085 25.013h-4.17c-3.736 0-6.775-3.04-6.775-6.778V8.85C.14 3.962 4.114-.014 9-.014c4.886 0 8.86 3.976 8.86 8.864v9.385c0 3.738-3.04 6.778-6.775 6.778zM9 20.843a.522.522 0 0 0 .521-.522v-3.129a.522.522 0 0 0-1.042 0v3.129c0 .288.233.521.521.521zM16.818 8.85c0-4.313-3.507-7.822-7.818-7.822S1.182 4.537 1.182 8.85v9.385a5.74 5.74 0 0 0 5.733 5.736H8.48v-2.182a1.561 1.561 0 0 1-1.043-1.468v-3.129c0-.862.702-1.564 1.564-1.564.862 0 1.564.702 1.564 1.564v3.129c0 .679-.437 1.252-1.043 1.468v2.182h1.564a5.74 5.74 0 0 0 5.733-5.736z"/></g><g><path fill="none" stroke="#fff" stroke-miterlimit="20" stroke-width="2" d="M2 45v0l7 7v0l7-7v0" clip-path="url(&quot;#akuoa&quot;)"/></g><g><path fill="none" stroke="#fff" stroke-miterlimit="20" stroke-width="2" d="M9 43a1 1 0 1 1 0 2 1 1 0 0 1 0-2z" clip-path="url(&quot;#akuob&quot;)"/></g><g><path fill="none" stroke="#fff" stroke-miterlimit="20" stroke-width="2" d="M9 37a1 1 0 1 1 0 2 1 1 0 0 1 0-2z" clip-path="url(&quot;#akuoc&quot;)"/></g><g><path fill="none" stroke="#fff" stroke-miterlimit="20" stroke-width="2" d="M9 31a1 1 0 1 1 0 2 1 1 0 0 1 0-2z" clip-path="url(&quot;#akuod&quot;)"/></g></g></g></svg>